<svg id="Layer_1" enable-background="new 0 0 512 512" height="512" viewBox="0 0 512 512" width="512" xmlns="http://www.w3.org/2000/svg"><g><path d="m273.913 365.151c-.226-1.167-.424-2.347-.619-3.529l-2.384-2.578h-29.875l-2.328 2.578c-.195 1.182-.394 2.362-.62 3.529-4.819 36.288-17.211 64.739-26.318 81.643-5.867 10.889-4.133 24.301 4.282 33.366l22.48 24.219c9.43 10.16 25.508 10.16 34.938 0l22.48-24.219c8.414-9.066 10.148-22.477 4.282-33.366-9.107-16.904-21.499-45.355-26.318-81.643z" fill="#ffd064"/><path d="m343.478 93.065c-13.901-27.849-37.205-63.119-73.863-88.779-8.164-5.715-19.068-5.715-27.232 0-36.658 25.66-59.962 60.931-73.862 88.779-11.896 23.832-9.139 52.473 7.446 73.315 46.866 58.896 62.737 114.63 64.055 161.607.111 1.339.19 2.672.263 4.003l1.791 2.157h28.405l1.235-2.157c.072-1.33.152-2.663.262-4.002 1.317-46.977 17.188-102.712 64.055-161.608 16.584-20.841 19.34-49.482 7.445-73.315z" fill="#ffd064"/><g fill="#ffc250"><path d="m267.813 504.38-16.616-24.219c-6.219-9.066-7.501-22.477-3.165-33.366 6.731-16.904 15.891-45.355 19.452-81.643.167-1.167.314-2.347.458-3.529l1.721-2.578h-28.629l-2.328 2.578c-.195 1.182-.394 2.362-.62 3.529-4.819 36.288-17.211 64.739-26.318 81.643-5.867 10.889-4.133 24.301 4.282 33.366l22.48 24.219c8.419 9.07 22.131 10.036 31.686 2.912-.848-.856-1.656-1.822-2.403-2.912z"/><path d="m268.915 327.988c-.974-46.977-12.704-102.711-47.345-161.607-12.258-20.842-14.296-49.483-5.503-73.315 10.218-27.695 27.318-62.722 54.155-88.345-.204-.144-.402-.291-.607-.434-8.164-5.715-19.068-5.715-27.232 0-36.658 25.66-59.962 60.931-73.862 88.779-11.896 23.832-9.139 52.473 7.446 73.315 46.866 58.896 62.737 114.63 64.055 161.607.111 1.339.19 2.672.263 4.003l1.791 2.157h28.357l-1.324-2.157c-.053-1.331-.112-2.664-.194-4.003z"/><path d="m357.548 205.112c-51.07 26.131-83.05 74.849-85.836 126.88l1.568 3.488h30.402l1.918-3.488c1.387-6.284 3.704-12.407 6.919-18.142 11.958-21.337 34.38-49.139 70.042-49.139 45.103 0 53.782 38.118 55.416 54.935.288 2.97 3.917 4.251 6.025 2.139 57.84-59.94-12.3-154.616-86.454-116.673z"/></g><path d="m447.966 223.795c-20.014-24.494-54.748-36.935-90.417-18.684-51.07 26.131-83.05 74.849-85.836 126.88l1.568 3.488h17.758c13.895-114.487 115.607-115.945 156.927-111.684z" fill="#ebb044"/><path d="m377.587 376.321c-7.281 13.354-21.657 21.567-36.817 20.334-15.401-1.253-24.749-11.54-30.416-23.165-1.87-3.836-3.309-7.813-4.34-11.867l-2.331-2.578h-27.492l-2.909 2.578c10.782 65.466 67.769 97.131 96.734 73.207 22.172-18.313 19.686-43.622 16.037-57.505-1.054-4.009-6.483-4.642-8.466-1.004z" fill="#ffc250"/><path d="m290.446 359.044h-14.257l-2.909 2.578c10.782 65.466 67.769 97.131 96.734 73.207.217-.179.416-.363.628-.544-42.937-11.62-76.088-34.117-80.196-75.241z" fill="#ebb044"/><path d="m154.451 205.112c-74.153-37.943-144.293 56.733-86.451 116.673 2.108 2.112 5.736.831 6.025-2.139 1.634-16.818 10.313-54.935 55.416-54.935 35.661 0 58.084 27.801 70.042 49.139 3.214 5.735 5.531 11.857 6.918 18.142l1.154 3.488h30.133l2.601-3.488c-2.788-52.031-34.768-100.749-85.838-126.88z" fill="#ffc250"/><path d="m224.38 335.479c-4.962-41.497-33.019-86.33-77.606-98.511-73.434-20.062-85.114 41.841-86.146 76.077 2.18 2.979 4.631 5.899 7.372 8.74 2.108 2.112 5.736.831 6.025-2.139 1.634-16.818 10.313-54.935 55.416-54.935 35.661 0 58.084 27.801 70.042 49.139 3.214 5.735 5.531 11.857 6.918 18.142l1.154 3.488h16.825z" fill="#ebb044"/><path d="m208.317 359.044-2.331 2.578c-1.031 4.055-2.47 8.031-4.34 11.867-5.667 11.625-15.016 21.913-30.417 23.165-15.16 1.233-29.536-6.98-36.817-20.334-1.983-3.638-7.412-3.005-8.465 1.003-3.649 13.883-6.135 39.192 16.037 57.505 28.965 23.924 85.953-7.741 96.735-73.207l-2.192-2.578h-28.21z" fill="#ffc250"/><path d="m208.317 359.044-2.331 2.578c-1.031 4.055-2.47 8.031-4.34 11.867-5.667 11.625-15.016 21.913-30.417 23.165-15.16 1.233-29.536-6.98-36.817-20.334-1.983-3.638-7.412-3.005-8.465 1.003-1.925 7.322-3.522 17.824-1.352 28.8 64.696 22.577 95.562-6.647 100.008-47.08h-16.286z" fill="#ebb044"/><path d="m309.537 331.991h-107.074c-4.16 0-7.532 3.372-7.532 7.532v14.567c0 4.16 3.372 7.532 7.532 7.532h107.074c4.16 0 7.532-3.372 7.532-7.532v-14.567c0-4.16-3.372-7.532-7.532-7.532z" fill="#ffe07d"/><path d="m242.613 354.09v-14.567c0-4.16 3.372-7.532 7.532-7.532h-47.682c-4.16 0-7.532 3.372-7.532 7.532v14.567c0 4.16 3.372 7.532 7.532 7.532h47.682c-4.16 0-7.532-3.372-7.532-7.532z" fill="#ffd064"/></g></svg>