<svg id="Capa_1" enable-background="new 0 0 512 512" height="512" viewBox="0 0 512 512" width="512" xmlns="http://www.w3.org/2000/svg"><g><path d="m393.498 275.439c-12.753-12.753-33.429-12.753-46.182 0l19.737-19.737c12.753-12.753 12.753-33.429 0-46.182s-33.429-12.753-46.182 0l11.697-11.697c12.753-12.753 12.753-33.429 0-46.182-12.753-12.753-33.429-12.753-46.182 0l-20.884 20.884c12.751-12.753 12.751-33.428-.001-46.181-12.753-12.753-33.429-12.753-46.182 0l-78.692 78.692v-29.449c0-21.694-17.586-39.28-39.28-39.28s-39.28 17.586-39.28 39.28v143.939c0 10.913 2.057 21.822 6.15 32.11l-42.88 42.88c-9.259 9.259-9.259 24.271 0 33.53l77.008 77.008c9.259 9.259 24.271 9.259 33.53 0l42.88-42.88c31.217 12.418 68.184 6.006 93.449-19.259l121.296-121.296c12.751-12.751 12.751-33.427-.002-46.18z" fill="#ffd3bd"/><path d="m102.343 505.056c9.259 9.259 24.271 9.259 33.53 0l42.88-42.88c22.211 8.835 47.33 8.128 69.077-2.11-150.797-64.57-160.98-227.635-133.382-321.51-4.099-1.451-8.507-2.247-13.103-2.247-21.694 0-39.28 17.586-39.28 39.28v143.939c0 10.913 2.057 21.822 6.15 32.11l-42.88 42.88c-9.259 9.259-9.259 24.271 0 33.53z" fill="#ffbe9d"/><g><g><ellipse cx="112.667" cy="303.389" fill="#eda1ab" rx="23.756" ry="29.831" transform="matrix(.707 -.707 .707 .707 -181.528 168.527)"/><ellipse cx="227.002" cy="417.724" fill="#eda1ab" rx="23.756" ry="29.831" transform="matrix(.707 -.707 .707 .707 -228.889 282.866)"/><path d="m199.747 364.657c10.51-10.51 3.884-19.112-5.509-28.504-9.393-9.393-17.994-16.019-28.505-5.509-10.51 10.51-11.416 26.645-2.024 36.037 9.394 9.392 25.528 8.486 36.038-2.024z" fill="#4e5660"/></g><g fill="#4e5660"><path d="m136.248 294.361c-1.92 0-3.839-.732-5.303-2.196-2.929-2.93-2.929-7.678 0-10.607l8.613-8.613c2.929-2.928 7.678-2.928 10.607 0 2.929 2.93 2.929 7.678 0 10.607l-8.613 8.613c-1.465 1.464-3.385 2.196-5.304 2.196z"/><path d="m243.53 401.644c-1.919 0-3.839-.732-5.303-2.196-2.929-2.93-2.929-7.678 0-10.607l8.613-8.613c2.929-2.928 7.678-2.928 10.606 0 2.929 2.93 2.929 7.678 0 10.607l-8.613 8.613c-1.464 1.463-3.384 2.196-5.303 2.196z"/></g></g><g fill="#ffbe9d"><path d="m195.814 249.713c-1.92 0-3.839-.732-5.303-2.196-2.929-2.93-2.929-7.678 0-10.607l69.687-69.686c2.929-2.928 7.678-2.928 10.606 0 2.929 2.93 2.929 7.678 0 10.607l-69.687 69.687c-1.464 1.462-3.384 2.195-5.303 2.195z"/><path d="m245.94 291.951c-1.919 0-3.839-.732-5.303-2.196-2.929-2.93-2.929-7.678 0-10.607l74.931-74.932c2.929-2.928 7.678-2.928 10.606 0 2.929 2.93 2.929 7.678 0 10.607l-74.931 74.932c-1.464 1.464-3.383 2.196-5.303 2.196z"/><path d="m280.532 349.724c-1.919 0-3.839-.732-5.303-2.196-2.929-2.93-2.929-7.678 0-10.607l66.784-66.785c2.929-2.928 7.678-2.928 10.606 0 2.929 2.93 2.929 7.678 0 10.607l-66.784 66.785c-1.464 1.463-3.384 2.196-5.303 2.196z"/></g><path d="m380.857 464.594c-2.582 0-5.17-.089-7.764-.267-4.133-.284-7.252-3.864-6.969-7.996.284-4.134 3.87-7.253 7.996-6.969 28.249 1.931 55.904-8.404 75.879-28.379 19.975-19.974 30.318-47.631 28.378-75.879-.284-4.133 2.836-7.712 6.969-7.996 4.127-.277 7.712 2.836 7.996 6.969 2.237 32.574-9.695 64.472-32.737 87.514-21.206 21.206-49.915 33.003-79.748 33.003z" fill="#7acdf9"/><path d="m367.317 419.69c-1.864 0-3.732-.064-5.605-.192-4.132-.284-7.252-3.864-6.968-7.996.284-4.133 3.874-7.24 7.996-6.969 19.189 1.319 37.971-5.707 51.536-19.272s20.59-32.35 19.273-51.536c-.284-4.133 2.836-7.712 6.969-7.996 4.128-.285 7.712 2.835 7.996 6.969 1.614 23.513-6.999 46.538-23.631 63.17-15.309 15.306-36.032 23.822-57.566 23.822z" fill="#cde9fa"/><path d="m321.702 51.161c-2.093 0-4.174-.871-5.657-2.572-18.602-21.347-45.472-33.589-73.721-33.589s-55.119 12.242-73.722 33.589c-2.722 3.122-7.46 3.447-10.582.726-3.122-2.722-3.448-7.459-.727-10.582 21.453-24.615 52.446-38.733 85.031-38.733 32.586 0 63.578 14.118 85.029 38.733 2.721 3.123 2.396 7.86-.727 10.582-1.421 1.239-3.177 1.846-4.924 1.846z" fill="#7acdf9"/><path d="m186.597 90.907c-1.748 0-3.503-.607-4.925-1.846-3.123-2.722-3.448-7.459-.727-10.582 15.485-17.768 37.857-27.958 61.378-27.958 23.522 0 45.894 10.19 61.378 27.958 2.721 3.123 2.396 7.86-.727 10.582-3.123 2.721-7.86 2.396-10.582-.727-12.635-14.498-30.884-22.813-50.069-22.813-19.184 0-37.434 8.315-50.069 22.813-1.483 1.702-3.565 2.573-5.657 2.573z" fill="#cde9fa"/></g></svg>