<svg height="512pt" viewBox="0 0 512 512.00015" width="512pt" xmlns="http://www.w3.org/2000/svg"><path d="m494.394531 494.183594c-11.878906 11.453125-26.941406 17.605468-42.425781 17.816406-16.125 0-31.394531-6.363281-42.425781-17.816406l-119.855469-119.855469 4.878906-47.304687 42.425782-42.425782 37.335937 5.089844 119.851563 119.855469c11.246093 11.242187 17.820312 26.300781 17.820312 42.425781-.210938 15.484375-6.363281 30.546875-17.605469 42.214844zm0 0" fill="#ff7816"/><path d="m494.394531 494.183594c-11.878906 11.453125-26.941406 17.605468-42.425781 17.816406-16.125 0-31.394531-6.363281-42.425781-17.816406l-119.855469-119.855469 4.878906-47.304687 16.335938-16.335938zm0 0" fill="#ff4b00"/><path d="m135.425781 133.527344h-1.695312l-22.484375-.847656-54.730469-8.484376c-4.242187-.425781-8.0625-2.96875-10.394531-6.152343l-43.488282-64.699219c-4.242187-5.941406-3.179687-13.789062 1.910157-18.878906l29.910156-29.914063c5.089844-5.515625 13.578125-5.9375 19.515625-1.695312l63.851562 46.878906c3.394532 2.546875 5.515626 6.367187 6.152344 10.394531l8.699219 51.125zm0 0" fill="#a8d3d8"/><path d="m19.605469 19.398438 114.125 114.128906-22.484375-.847656-54.730469-8.484376c-4.242187-.425781-8.0625-2.972656-10.394531-6.152343l-43.488282-64.703125c-4.242187-5.9375-3.179687-13.785156 1.910157-18.878906zm0 0" fill="#8ebac5"/><path d="m321.082031 236.441406c-5.941406-5.9375-15.273437-5.9375-21.214843 0l-63.425782 63.429688c-5.941406 5.9375-5.941406 15.269531 0 21.210937l53.246094 53.246094 84.640625-84.640625zm0 0" fill="#ff4b00"/><path d="m244.886719 244.683594-.210938.214844c-6.363281 6.363281-15.910156 5.300781-20.789062 0l-112.640625-112.21875 21.425781-21.425782 112.21875 112.640625c5.9375 5.515625 5.9375 15.273438-.003906 20.789063zm0 0" fill="#a8d3d8"/><path d="m169.164062 450.023438-32.460937-32.460938c-5.859375-5.859375-15.351563-5.859375-21.210937 0l-60 60c-7.320313 7.320312-5.164063 19.652344 4.089843 24.109375 14.425781 6.960937 29.894531 10.328125 45.292969 10.328125 22.476562 0 44.535156-7.574219 63.003906-21.359375-.269531-3.285156.421875-22.035156 1.285156-40.617187zm0 0" fill="#a8d3d8"/><path d="m94.398438 375.269531-28.769532-28.78125-44.625-2.5c-23.1875 31.128907-27.796875 72.976563-10.714844 108.40625 4.457032 9.257813 16.785157 11.414063 24.109376 4.085938l60-60c5.859374-5.855469 5.859374-15.347657 0-21.210938zm0 0" fill="#c6e2e7"/><path d="m122.0625 121.859375 122.824219 122.824219-.210938.210937c-6.363281 6.367188-15.910156 5.304688-20.789062 0l-112.640625-112.214843zm0 0" fill="#8ebac5"/><path d="m332.113281 331.902344-42.425781 42.425781-53.246094-53.246094c-5.9375-5.941406-5.9375-15.273437 0-21.210937l31.820313-31.820313zm0 0" fill="#d03b00"/><path d="m452.378906 10.109375c-35.753906-16.855469-77.515625-12.230469-108.269531 10.882813l-3.289063 39.050781 34.226563 34.238281c5.820313 5.820312 15.300781 5.882812 21.183594.027344l60.308593-60c7.324219-7.261719 5.269532-19.71875-4.160156-24.199219zm0 0" fill="#c6e2e7"/><path d="m490.964844 167.816406c23.179687-30.765625 27.824218-72.417968 10.824218-108.003906-4.335937-9.09375-16.679687-11.671875-24.144531-4.144531l-60 60c-5.855469 5.859375-5.855469 15.351562 0 21.210937l26.957031 26.957032zm0 0" fill="#a8d3d8"/><path d="m417.460938 94.175781c-66.902344-66.902343-73.203126-73.203125-73.203126-73.203125-37.796874 28.203125-51.300781 76.800782-36.300781 119.101563l-167.757812 168.09375c-42.300781-15-91.199219-1.5-119.402344 35.703125l73.5 73.5c67.800781 67.796875 73.800781 73.796875 73.800781 73.796875 37.5-28.5 51-77.101563 35.703125-119.398438l168.058594-167.792969c42.296875 15 90.898437 1.5 119.097656-36.300781-30.296875-30.300781-54.300781-54.300781-73.496093-73.5zm0 0" fill="#deecf1"/><path d="m490.957031 167.675781c-28.199219 37.800781-76.800781 51.300781-119.097656 36.300781l-168.058594 167.792969c15.296875 42.296875 1.796875 90.902344-35.703125 119.398438 0 0-6-6-73.800781-73.796875l323.164063-323.195313c19.195312 19.199219 43.199218 43.199219 73.496093 73.5zm0 0" fill="#c6e2e7"/></svg>